<?xml version="1.0" encoding="UTF-8"?>
<svg width="86px" height="62px" viewBox="0 0 86 62" version="1.1" xmlns="http://www.w3.org/2000/svg" xmlns:xlink="http://www.w3.org/1999/xlink">
    <!-- Generator: Sketch 56.3 (81716) - https://sketch.com -->
    <title>enter</title>
    <desc>Created with Sketch.</desc>
    <g id="Page-1" stroke="none" stroke-width="1" fill="none" fill-rule="evenodd">
        <g id="enter" transform="translate(0.375000, 0.647000)" fill="#CABDA6" fill-rule="nonzero">
            <path d="M79.478,60.706 L5.772,60.706 C2.589,60.706 0,58.116 0,54.934 L0,28.941 C0,25.758 2.589,23.169 5.772,23.169 L38.18,23.169 L38.18,5.16 C38.18,2.315 40.495,3.55271368e-15 43.341,3.55271368e-15 L80.09,3.55271368e-15 C82.936,3.55271368e-15 85.251,2.315 85.251,5.16 L85.251,54.933 C85.25,58.116 82.66,60.706 79.478,60.706 Z M5.772,25.833 C4.059,25.833 2.664,27.228 2.664,28.941 L2.664,54.933 C2.664,56.647 4.059,58.041 5.772,58.041 L79.478,58.041 C81.192,58.041 82.586,56.646 82.586,54.933 L82.586,5.16 C82.586,3.784 81.466,2.664 80.089,2.664 L43.34,2.664 C41.964,2.664 40.843,3.784 40.843,5.16 L40.843,25.833 L5.772,25.833 Z" id="Shape"></path>
            <path d="M60.46,22.42 C59.233,22.42 58.24,23.414 58.24,24.64 L58.24,37.913 C58.24,39.138 57.244,40.133 56.019,40.133 L38.209,40.133 L38.209,34.213 L22.571,42.353 L38.209,50.493 L38.209,44.573 L56.02,44.573 C59.693,44.573 62.68,41.586 62.68,37.913 L62.68,24.64 C62.68,23.414 61.687,22.42 60.46,22.42 Z" id="Path"></path>
        </g>
    </g>
</svg>